<?xml version="1.0" encoding="UTF-8"?>
<svg width="48px" height="48px" viewBox="0 0 48 48" version="1.1" xmlns="http://www.w3.org/2000/svg" xmlns:xlink="http://www.w3.org/1999/xlink">
    <!-- Generator: Sketch 51.2 (57519) - http://www.bohemiancoding.com/sketch -->
    <title>Artboard</title>
    <desc>Created with Sketch.</desc>
    <defs></defs>
    <g id="Artboard" stroke="none" stroke-width="1" fill="none" fill-rule="evenodd">
        <path d="M3.81133333,9.44558333 C4.7885,8.55641667 6.07366667,7.99908333 7.5,7.99908333 L40.5,7.99908333 C41.9263333,7.99908333 43.2115,8.55641667 44.1886667,9.44558333 L24,25.80625 L3.81133333,9.44558333 Z M45.9888167,35.6037667 L33.94565,22.4661 C33.94565,22.4661 45.7779833,12.8777667 45.92465,12.7586 C45.95765,13.0024333 45.9998167,13.2462667 45.9998167,13.4992667 L45.9998167,35.4992667 C45.9998167,35.5359333 45.99065,35.5671 45.9888167,35.6037667 Z M44.43305,39.3347833 C43.4338833,40.3596167 42.0442167,40.99945 40.4987167,40.99945 L7.49871667,40.99945 C5.95688333,40.99945 4.56538333,40.3596167 3.56621667,39.3347833 L16.9073833,24.7781167 L23.9987167,30.5256167 L31.0918833,24.7781167 L44.43305,39.3347833 Z M2.0748,12.7578667 L14.0538,22.4672 C14.0538,22.4672 2.03263333,35.5810333 2.01063333,35.6030333 C2.01063333,35.5682 1.99963333,35.5352 1.99963333,35.5003667 L1.99963333,13.5003667 C1.99963333,13.2455333 2.03996667,13.0035333 2.0748,12.7578667 Z" id="E-Mail-Icon" fill="#000000"></path>
    </g>
</svg>