<?xml version="1.0" encoding="UTF-8"?>
<svg width="48px" height="48px" viewBox="0 0 48 48" version="1.1" xmlns="http://www.w3.org/2000/svg" xmlns:xlink="http://www.w3.org/1999/xlink">
    <!-- Generator: Sketch 52.5 (67469) - http://www.bohemiancoding.com/sketch -->
    <title>GitHub</title>
    <desc>Created with Sketch.</desc>
    <g id="GitHub" stroke="none" stroke-width="1" fill="none" fill-rule="evenodd">
        <path d="M23.9979005,2.4 C11.4078271,2.4 1.2,12.6078271 1.2,25.2006998 C1.2,35.2741582 7.73228153,43.8191719 16.7923755,46.8354707 C17.9331103,47.0440222 18.3488137,46.3399859 18.3488137,45.7353264 C18.3488137,45.195052 18.3292182,43.7603855 18.3180208,41.8582277 C11.976095,43.2355075 10.6380061,38.8013383 10.6380061,38.8013383 C9.60084717,36.1685503 8.10599466,35.4659136 8.10599466,35.4659136 C6.03587587,34.0522422 8.26275822,34.0802357 8.26275822,34.0802357 C10.5512263,34.2411983 11.7549464,36.4302895 11.7549464,36.4302895 C13.7886737,39.9140796 17.0919058,38.9077136 18.3908039,38.3254489 C18.5979557,36.8515915 19.1858191,35.8466251 19.8380675,35.2769575 C14.7754443,34.7016913 9.45248166,32.7449461 9.45248166,24.008177 C9.45248166,21.5195555 10.3412751,19.4844286 11.799736,17.8901992 C11.5645907,17.3135333 10.7821726,14.9956721 12.0222843,11.8562018 C12.0222843,11.8562018 13.9370392,11.2431444 18.2928267,14.1936585 C20.111004,13.6869763 22.0621505,13.4350348 24.0006998,13.4266368 C25.9364499,13.4350348 27.8875963,13.6869763 29.708573,14.1936585 C34.0615611,11.2431444 35.972117,11.8562018 35.972117,11.8562018 C37.2164278,14.9956721 36.4340096,17.3135333 36.1988643,17.8901992 C37.6601246,19.4844286 38.5433193,21.5195555 38.5433193,24.008177 C38.5433193,32.7673409 33.2119586,34.6946929 28.1325394,35.2587618 C28.951349,35.9627981 29.6805795,37.3540747 29.6805795,39.4815802 C29.6805795,42.5286718 29.652586,44.9879002 29.652586,45.7353264 C29.652586,46.3455846 30.0626907,47.0552196 31.2202216,46.8326714 C40.2733172,43.8107738 46.8,35.2713589 46.8,25.2006998 C46.8,12.6078271 36.5907732,2.4 23.9979005,2.4" id="GitHub-Icon" fill="#000000"></path>
    </g>
</svg>