<?xml version="1.0" encoding="UTF-8"?>
<svg width="48px" height="48px" viewBox="0 0 48 48" version="1.1" xmlns="http://www.w3.org/2000/svg" xmlns:xlink="http://www.w3.org/1999/xlink">
    <!-- Generator: Sketch 52.5 (67469) - http://www.bohemiancoding.com/sketch -->
    <title>Instagram</title>
    <desc>Created with Sketch.</desc>
    <g id="Instagram" stroke="none" stroke-width="1" fill="none" fill-rule="evenodd">
        <path d="M35.7443333,9.6175 C34.285,9.6175 33.1025,10.8 33.1025,12.2575 C33.1025,13.715 34.285,14.8975 35.7443333,14.8975 C37.2018333,14.8975 38.3825,13.715 38.3825,12.2575 C38.3825,10.8 37.2018333,9.6175 35.7443333,9.6175 M24,31.3333333 C19.9501667,31.3333333 16.6666667,28.0516667 16.6666667,24 C16.6666667,19.9501667 19.9501667,16.6666667 24,16.6666667 C28.0498333,16.6666667 31.3333333,19.9501667 31.3333333,24 C31.3333333,28.0516667 28.0498333,31.3333333 24,31.3333333 M24,12.703 C17.7611667,12.703 12.703,17.7611667 12.703,24 C12.703,30.2388333 17.7611667,35.2988333 24,35.2988333 C30.2388333,35.2988333 35.297,30.2406667 35.297,24 C35.297,17.7611667 30.2388333,12.703 24,12.703 M24,2 C18.0251667,2 17.2771667,2.02566667 14.9305,2.132 C6.94083333,2.49866667 2.5005,6.93166667 2.13383333,14.9286667 C2.02566667,17.2771667 2,18.0251667 2,24 C2,29.9748333 2.02566667,30.7246667 2.132,33.0713333 C2.49866667,41.061 6.93166667,45.5013333 14.9286667,45.868 C17.2771667,45.9743333 18.0251667,46 24,46 C29.9748333,46 30.7246667,45.9743333 33.0713333,45.868 C41.0536667,45.5013333 45.505,41.0683333 45.8661667,33.0713333 C45.9743333,30.7246667 46,29.9748333 46,24 C46,18.0251667 45.9743333,17.2771667 45.868,14.9305 C45.5086667,6.94816667 41.0701667,2.5005 33.0731667,2.13383333 C30.7246667,2.02566667 29.9748333,2 24,2 M24,5.9655 C29.874,5.9655 30.5706667,5.9875 32.8916667,6.09383333 C38.8536667,6.36516667 41.6385,9.194 41.9098333,15.112 C42.0161667,17.4311667 42.0363333,18.1278333 42.0363333,24.0018333 C42.0363333,29.8776667 42.0143333,30.5725 41.9098333,32.8916667 C41.6366667,38.8041667 38.8591667,41.6385 32.8916667,41.9098333 C30.5706667,42.0161667 29.8776667,42.0381667 24,42.0381667 C18.126,42.0381667 17.4293333,42.0161667 15.1101667,41.9098333 C9.1335,41.6366667 6.36333333,38.795 6.092,32.8898333 C5.98566667,30.5706667 5.96366667,29.8758333 5.96366667,24 C5.96366667,18.126 5.9875,17.4311667 6.092,15.1101667 C6.36516667,9.194 9.14266667,6.36333333 15.1101667,6.092 C17.4311667,5.9875 18.126,5.9655 24,5.9655" id="Instagram-Icon" fill="#000000"></path>
    </g>
</svg>