<?xml version="1.0" encoding="UTF-8"?>
<svg width="48px" height="48px" viewBox="0 0 48 48" version="1.1" xmlns="http://www.w3.org/2000/svg" xmlns:xlink="http://www.w3.org/1999/xlink">
    <!-- Generator: Sketch 52.5 (67469) - http://www.bohemiancoding.com/sketch -->
    <title>LinkedIn</title>
    <desc>Created with Sketch.</desc>
    <g id="LinkedIn" stroke="none" stroke-width="1" fill="none" fill-rule="evenodd">
        <path d="M25.6694,15.5 L17.2238,15.5 L17.2238,42.7 L25.6711,42.7 L25.6711,28.4217 C25.6711,20.4827 35.9204,19.8333 35.9204,28.4217 L35.9204,42.7 L44.4,42.7 L44.4,25.4773 C44.4,12.0813 29.2326,12.5692 25.6694,19.1635 L25.6694,15.5 Z M3.6,42.7 L12.1,42.7 L12.1,15.5 L3.6,15.5 L3.6,42.7 Z M12.066,7.85 C12.066,10.1977 10.179,12.1 7.85,12.1 C5.521,12.1 3.634,10.1977 3.634,7.85 C3.634,5.504 5.521,3.6 7.85,3.6 C10.179,3.6 12.066,5.504 12.066,7.85 L12.066,7.85 Z" id="LinkedIn-Icon" fill="#000000"></path>
    </g>
</svg>