<?xml version="1.0" encoding="UTF-8"?>
<svg width="48px" height="48px" viewBox="0 0 48 48" version="1.1" xmlns="http://www.w3.org/2000/svg" xmlns:xlink="http://www.w3.org/1999/xlink">
    <!-- Generator: Sketch 51.2 (57519) - http://www.bohemiancoding.com/sketch -->
    <title>Telegram</title>
    <desc>Created with Sketch.</desc>
    <defs></defs>
    <g id="Telegram" stroke="none" stroke-width="1" fill="none" fill-rule="evenodd">
        <path d="M39.9348114,6.40327577 L2.63357524,21.0357475 C2.63357524,21.0357475 0.868481087,21.6397201 1.00783796,22.7545751 C1.14719483,23.8692908 2.5871694,24.3801731 2.5871694,24.3801731 L11.7178317,27.454107 C11.8776741,27.5078987 12.0532637,27.4867165 12.1955471,27.3962739 L34.4998934,13.2317626 C34.4998934,13.2317626 35.8005111,12.4421665 35.7541052,13.2317626 C35.7541052,13.2317626 35.9864131,13.3711194 35.2896288,14.021498 C34.632143,14.6352256 19.4559008,28.2782635 17.7472462,29.814255 C17.6462125,29.9051156 17.5825264,30.0290039 17.5666397,30.1639014 L16.4371522,39.7767385 C16.3867051,40.2224017 16.8589855,40.5482181 17.2529474,40.3337479 C17.2741296,40.3223206 17.2923854,40.3114508 17.3075753,40.3019745 C17.3369796,40.2839975 17.3637361,40.263512 17.3892384,40.2401001 L23.4224155,34.7394056 L23.4210219,34.7385694 L32.8157655,41.9410901 C32.8543674,41.9707731 32.8974287,41.996136 32.9423016,42.0148099 C35.1757742,42.9465499 36.1427715,41.2310668 36.325329,40.8504832 C36.3459539,40.8074219 36.360865,40.7628277 36.370202,40.7160038 L42.9886779,7.3467218 C42.9966213,7.30630831 43.0009413,7.26436189 42.9998265,7.22325161 C42.9425508,5.08175454 39.9348114,6.40327577 39.9348114,6.40327577" id="Telegram-Icon" fill="#000000"></path>
    </g>
</svg>