<?xml version="1.0" encoding="UTF-8"?>
<svg width="48px" height="48px" viewBox="0 0 48 48" version="1.1" xmlns="http://www.w3.org/2000/svg" xmlns:xlink="http://www.w3.org/1999/xlink">
    <!-- Generator: Sketch 52.5 (67469) - http://www.bohemiancoding.com/sketch -->
    <title>Twitter</title>
    <desc>Created with Sketch.</desc>
    <g id="Twitter" stroke="none" stroke-width="1" fill="none" fill-rule="evenodd">
        <path d="M41.6840033,10.8718622 C43.6863002,9.6728466 45.2239541,7.77292863 45.9465135,5.50877769 C44.0741591,6.61919606 41.9990156,7.42641509 39.7899918,7.86152584 C38.0239541,5.97735849 35.5018868,4.8 32.7140279,4.8 C26.4551272,4.8 21.8559475,10.6395406 23.2695652,16.7015587 C15.2150943,16.2979491 8.07219032,12.4390484 3.28990976,6.57391304 C0.750123052,10.930927 1.97276456,16.6306809 6.28843314,19.5169811 C4.70155865,19.4657916 3.20525021,19.0306809 1.89991797,18.3041838 C1.79360131,22.7950779 5.01263331,26.9965546 9.67481542,27.9317473 C8.31041838,28.3018868 6.81607875,28.3885152 5.29614438,28.0971288 C6.52863002,31.9481542 10.1079573,34.7497949 14.3527482,34.828548 C10.2772765,38.0239541 5.14257588,39.4513536 -1.0658141e-14,38.8449549 C4.29007383,41.5954061 9.38736669,43.2 14.8607055,43.2 C32.8597211,43.2 43.0287121,27.9986874 42.4144381,14.3645611 C44.3084495,12.9962264 45.95242,11.2892535 47.2518458,9.34602133 C45.5133716,10.1178015 43.6449549,10.6375718 41.6840033,10.8718622 Z" id="Twitter-Icon" fill="#000000"></path>
    </g>
</svg>