<?xml version="1.0" encoding="UTF-8"?>
<svg width="264px" height="264px" viewBox="0 0 264 264" version="1.1" xmlns="http://www.w3.org/2000/svg" xmlns:xlink="http://www.w3.org/1999/xlink">
    <!-- Generator: Sketch 52.5 (67469) - http://www.bohemiancoding.com/sketch -->
    <title>Discipline</title>
    <desc>Created with Sketch.</desc>
    <defs>
        <filter x="-47.9%" y="-47.9%" width="195.8%" height="195.8%" filterUnits="objectBoundingBox" id="filter-1">
            <feOffset dx="0" dy="12" in="SourceAlpha" result="shadowOffsetOuter1"></feOffset>
            <feGaussianBlur stdDeviation="18" in="shadowOffsetOuter1" result="shadowBlurOuter1"></feGaussianBlur>
            <feColorMatrix values="0 0 0 0 0   0 0 0 0 0   0 0 0 0 0  0 0 0 0.1 0" type="matrix" in="shadowBlurOuter1" result="shadowMatrixOuter1"></feColorMatrix>
            <feMerge>
                <feMergeNode in="shadowMatrixOuter1"></feMergeNode>
                <feMergeNode in="SourceGraphic"></feMergeNode>
            </feMerge>
        </filter>
        <linearGradient x1="0%" y1="50%" x2="100%" y2="50%" id="linearGradient-2">
            <stop stop-color="#5893D4" offset="0%"></stop>
            <stop stop-color="#CEDDEF" offset="100%"></stop>
        </linearGradient>
        <path d="M125.0608,0 C144.336,0 153.9728,0 164.3472,3.28 C175.6752,7.4032 184.5968,16.3248 188.72,27.6528 C192,38.0272 192,47.6656 192,66.9392 L192,125.0608 C192,144.336 192,153.9712 188.72,164.3472 C184.5968,175.6752 175.6752,184.5968 164.3472,188.7184 C153.9728,192 144.336,192 125.0608,192 L66.9392,192 C47.664,192 38.0272,192 27.6528,188.7184 C16.3248,184.5968 7.4032,175.6752 3.28,164.3472 C0,153.9712 0,144.336 0,125.0608 L0,66.9392 C0,47.6656 0,38.0272 3.28,27.6528 C7.4032,16.3248 16.3248,7.4032 27.6528,3.28 C38.0272,0 47.664,0 66.9392,0 L125.0608,0 Z" id="path-3"></path>
        <linearGradient x1="0%" y1="50%" x2="100%" y2="50%" id="linearGradient-5">
            <stop stop-color="#1F3C88" offset="0%"></stop>
            <stop stop-color="#5893D4" offset="100%"></stop>
        </linearGradient>
        <linearGradient x1="0%" y1="50%" x2="100%" y2="50%" id="linearGradient-6">
            <stop stop-color="#070D59" offset="0%"></stop>
            <stop stop-color="#1F3C88" offset="100%"></stop>
        </linearGradient>
    </defs>
    <g id="Main" stroke="none" stroke-width="1" fill="none" fill-rule="evenodd">
        <g id="Desktop" transform="translate(-988.000000, -968.000000)">
            <g id="Icons" transform="translate(736.000000, 800.000000)">
                <g id="Discipline" filter="url(#filter-1)" transform="translate(288.000000, 192.000000)">
                    <mask id="mask-4" fill="white">
                        <use xlink:href="#path-3"></use>
                    </mask>
                    <use id="Mask" fill="url(#linearGradient-2)" xlink:href="#path-3"></use>
                    <path d="M125.0608,-1.42108547e-14 C144.336,-1.42108547e-14 153.9728,-1.42108547e-14 164.3472,3.28 C175.6752,7.4032 184.5968,16.3248 188.72,27.6528 C192,38.0272 192,47.6656 192,66.9392 L192,132 C184,148 172,156 156,156 C132,156 96,120 60,120 C36,120 16,132 -2.84217094e-14,156 L-2.84217094e-14,66.9392 C-2.84217094e-14,47.6656 -2.84217094e-14,38.0272 3.28,27.6528 C7.4032,16.3248 16.3248,7.4032 27.6528,3.28 C38.0272,-1.42108547e-14 47.664,-1.42108547e-14 66.9392,-1.42108547e-14 L125.0608,-1.42108547e-14 Z" id="Middle" fill="url(#linearGradient-5)" mask="url(#mask-4)"></path>
                    <path d="M125.0608,0 C144.336,0 153.9728,0 164.3472,3.28 C175.6752,7.4032 184.5968,16.3248 188.72,27.6528 C192,38.0272 192,47.6656 192,66.9392 C192,62.3130667 192,64 192,72 C168,72 156,24 120,24 C84,24 72,60 48,84 C32,100 16,100 1.86415277e-13,84 L1.42108547e-14,66.9392 C1.42108547e-14,47.6656 1.42108547e-14,38.0272 3.28,27.6528 C7.4032,16.3248 16.3248,7.4032 27.6528,3.28 C38.0272,0 47.664,0 66.9392,0 L125.0608,0 Z" id="Top" fill="url(#linearGradient-6)" mask="url(#mask-4)"></path>
                    <path d="M137.193801,110.308413 C143.452189,121.148576 135.629205,134.69878 123.111978,134.69878 L88.2829873,134.69878 C77.6808564,134.69878 69.8727776,124.705505 72.5191323,114.439419 C74.3185993,107.456096 77.0846475,100.598338 80.8665093,94.0481693 C84.648371,87.498001 89.2044011,81.6736719 94.3521234,76.6230594 C101.919912,69.1984513 114.47824,70.9640428 119.77908,80.145209 L137.193801,110.308413 Z M179.439135,134.69878 C166.921909,134.69878 159.098925,121.148576 165.357312,110.308413 L182.772034,80.145209 C188.072873,70.9640428 200.631202,69.1984513 208.19899,76.6230594 C213.346712,81.6736719 217.902743,87.498001 221.684604,94.0481693 C225.466466,100.598338 228.232514,107.456096 230.031981,114.439419 C232.678336,124.705505 224.870257,134.69878 214.268578,134.69878 L179.439135,134.69878 Z M137.193801,159.089146 C143.452189,148.248983 159.098609,148.248983 165.357448,159.089146 L182.772169,189.25235 C188.073009,198.433516 183.322759,210.191931 173.108616,213.03386 C166.161426,214.966571 158.839348,216 151.275625,216 C143.711901,216 136.389823,214.966571 129.442633,213.03386 C119.22849,210.191931 114.47824,198.433516 119.77908,189.25235 L137.193801,159.089146 Z" id="Segments" mask="url(#mask-4)" transform="translate(151.275557, 144.000000) rotate(-23.000000) translate(-151.275557, -144.000000) "></path>
                </g>
            </g>
        </g>
    </g>
</svg>