<?xml version="1.0" encoding="UTF-8"?>
<svg width="512px" height="192px" viewBox="0 0 512 192" version="1.1" xmlns="http://www.w3.org/2000/svg" xmlns:xlink="http://www.w3.org/1999/xlink">
    <!-- Generator: Sketch 52.5 (67469) - http://www.bohemiancoding.com/sketch -->
    <title>E*TRADE Abstract</title>
    <desc>Created with Sketch.</desc>
    <defs>
        <linearGradient x1="100%" y1="50%" x2="0%" y2="50%" id="linearGradient-1">
            <stop stop-color="#B8DFF0" offset="0%"></stop>
            <stop stop-color="#7971EA" offset="100%"></stop>
        </linearGradient>
        <linearGradient x1="0%" y1="50%" x2="100%" y2="50%" id="linearGradient-2">
            <stop stop-color="#7971EA" offset="0%"></stop>
            <stop stop-color="#3E4E88" offset="100%"></stop>
        </linearGradient>
        <linearGradient x1="0%" y1="50%" x2="100%" y2="50%" id="linearGradient-3">
            <stop stop-color="#1A2C5B" offset="0%"></stop>
            <stop stop-color="#3E4E88" offset="100%"></stop>
        </linearGradient>
    </defs>
    <g id="E*TRADE-Abstract" stroke="none" stroke-width="1" fill="none" fill-rule="evenodd">
        <rect id="Rectangle" fill="url(#linearGradient-1)" x="0" y="0" width="512" height="192"></rect>
        <path d="M-2.27373675e-13,192 C64,192 64,160 128,128 C192,96 256,128 320,128 C384,128 512,64 512,-2.84217094e-14 C469.333333,-2.84217094e-14 298.666667,-2.84217094e-14 -2.27373675e-13,-2.84217094e-14 C-2.27373675e-13,85.3333333 -2.27373675e-13,149.333333 -2.27373675e-13,192 Z" id="Path-3-Copy" fill="url(#linearGradient-2)" fill-rule="nonzero" transform="translate(256.000000, 96.000000) scale(-1, 1) translate(-256.000000, -96.000000) "></path>
        <path d="M7.06819371e-28,97.9855836 C64,128 64,128 128,64 C192,-3.1485925e-13 256,32 320,64 C384,96 448,64 512,-2.84217094e-14 C469.333333,-2.84217094e-14 298.666667,-2.84217094e-14 -2.27373675e-13,-2.84217094e-14 C-7.57912251e-14,22.6570558 7.06819371e-28,55.318917 7.06819371e-28,97.9855836 Z" id="Path-3" fill="url(#linearGradient-3)" fill-rule="nonzero"></path>
    </g>
</svg>