<?xml version="1.0" encoding="UTF-8"?>
<svg width="512px" height="192px" viewBox="0 0 512 192" version="1.1" xmlns="http://www.w3.org/2000/svg" xmlns:xlink="http://www.w3.org/1999/xlink">
    <!-- Generator: Sketch 52.5 (67469) - http://www.bohemiancoding.com/sketch -->
    <title>Racing Post 2 Recolor</title>
    <desc>Created with Sketch.</desc>
    <defs>
        <linearGradient x1="-2.22044605e-14%" y1="50%" x2="100%" y2="50%" id="linearGradient-1">
            <stop stop-color="#F21400" offset="0%"></stop>
            <stop stop-color="#730A00" offset="100%"></stop>
        </linearGradient>
    </defs>
    <g id="Racing-Post-2-Recolor" stroke="none" stroke-width="1" fill="none" fill-rule="evenodd">
        <rect id="Rectangle" fill="#262626" x="0" y="0" width="512" height="192"></rect>
        <rect id="Rectangle-Copy" fill="url(#linearGradient-1)" x="0" y="0" width="512" height="192"></rect>
        <path d="M256.394007,192.07289 L221.810487,192.07289 C221.810487,192.07289 220.244732,188.17376 222.259395,183.426993 C220.327461,184.783212 218.590822,186.478486 217.485843,188.682342 C218.056472,186.139431 220.400697,179.019281 218.161579,176.306842 C216.917248,180.036445 212.817059,184.105102 209.528905,185.461321 C208.070292,184.105102 206.797141,180.714554 212.04876,173.933459 C206.34552,176.984952 204.906571,180.3755 200.611086,184.105102 C201.855078,180.3755 200.78909,175.79826 197.13035,173.933459 C197.920687,177.663061 195.813122,183.426993 191.522384,188.343287 C189.914925,186.139431 190.768665,181.731719 192.551754,179.527863 C188.734336,181.731719 186.28297,186.308958 186.28297,186.308958 C186.28297,186.308958 187.173328,179.019281 184.69755,177.663061 C183.987569,181.731719 182.065468,185.461321 178.7824,188.004232 C179.52866,181.053609 176.377146,179.866917 176.377146,179.866917 C176.837921,185.969904 169.59605,192.07289 169.59605,192.07289 L221.810419,192.07289 C221.810419,192.07289 226.481577,185.461321 227.07933,177.663061 C229.608679,180.545027 229.770069,184.105102 228.571849,187.326123 C233.777358,181.053609 236.841396,172.238185 237.314716,169.525747 C238.783162,173.255349 238.3607,176.645897 237.645973,179.527863 C243.251565,176.306842 246.529886,172.57724 249.659701,168 C247.278519,178.002116 241.136542,184.613684 239.175449,186.308958 C243.17087,184.952739 244.866144,183.257465 246.610581,180.3755 C246.476315,183.087938 245.231984,186.817541 243.695388,190.038561 C248.325181,185.122267 250.679239,180.3755 252.986506,176.137315 C253.342514,180.205972 252.969215,183.766047 251.771673,186.987068 C256.299072,180.714554 258.694494,174.272514 258.823674,170.373383 C261.953255,179.617117 257.986571,188.86085 256.743672,191.394893 C258.57904,189.641969 263.150104,184.754443 262.781096,179.866917 C262.781096,179.866917 265.93261,181.053609 265.18635,188.004232 C268.469418,185.461321 270.391519,181.731719 271.1015,177.663061 C273.577278,179.019281 272.68692,186.308958 272.68692,186.308958 C272.68692,186.308958 275.138286,181.731719 278.955704,179.527863 C277.172615,181.731719 276.318875,186.139431 277.926334,188.343287 C282.217072,183.426993 284.324637,177.663061 283.5343,173.933459 C287.19304,175.79826 288.259028,180.3755 287.015036,184.105102 C291.310522,180.3755 292.749809,176.984952 298.452711,173.933459 C293.201091,180.714554 294.474242,184.105102 295.932855,185.461321 C299.221009,184.105102 303.321537,180.036445 304.565529,176.306842 C306.804647,179.019281 304.460422,186.139431 303.889454,188.682342 C304.994773,186.478486 306.731411,184.783212 308.663345,183.426993 C306.648343,188.17376 308.214437,192.07289 308.214437,192.07289 L308.2142,192.07289 C308.2142,192.07289 312.885696,185.461321 313.48345,177.663061 C316.01246,180.545027 316.17385,184.105102 314.975969,187.326123 C320.181477,181.053609 323.245515,172.238185 323.718497,169.525747 C325.186943,173.255349 324.76482,176.645897 324.050092,179.527863 C329.655685,176.306842 332.934006,172.57724 336.063481,168 C333.682639,178.002116 327.540322,184.613684 325.579229,186.308958 C329.574651,184.952739 331.269925,183.257465 333.014362,180.3755 C332.880096,183.087938 331.636104,186.817541 330.099169,190.038561 C334.728962,185.122267 337.083019,180.3755 339.390626,176.137315 C339.746295,180.205972 339.373334,183.766047 338.175793,186.987068 C342.702852,180.714554 345.098613,174.272514 345.227793,170.373383 C348.900774,181.223137 342.797788,192.07289 342.797788,192.07289 L308.214437,192.07289 L256.394007,192.07289 Z M135.012462,192.07289 L169.595982,192.07289 C169.595982,192.07289 175.698968,181.223137 172.025649,170.373383 C171.896469,174.272514 169.501047,180.714554 164.973648,186.987068 C166.17119,183.766047 166.544489,180.205972 166.188481,176.137315 C163.881214,180.3755 161.527156,185.122267 156.897363,190.038561 C158.433959,186.817541 159.678291,183.087938 159.812556,180.3755 C158.068119,183.257465 156.372845,184.952739 152.377424,186.308958 C154.338517,184.613684 160.480833,178.002116 162.861676,168 C159.731861,172.57724 156.45354,176.306842 150.848287,179.527863 C151.562675,176.645897 151.985137,173.255349 150.516691,169.525747 C150.043371,172.238185 146.979333,181.053609 141.773825,187.326123 C142.971705,184.105102 142.810654,180.545027 140.281305,177.663061 C139.683552,185.461321 135.012394,192.07289 135.012394,192.07289 L82.7980249,192.07289 C82.7980249,192.07289 90.0398961,185.969904 89.5791206,179.866917 C89.5791206,179.866917 92.7306349,181.053609 91.9843753,188.004232 C95.2674428,185.461321 97.1895443,181.731719 97.8995251,177.663061 C100.375303,179.019281 99.4849452,186.308958 99.4849452,186.308958 C99.4849452,186.308958 101.936311,181.731719 105.753729,179.527863 C103.97064,181.731719 103.1169,186.139431 104.724359,188.343287 C109.015097,183.426993 111.122662,177.663061 110.332325,173.933459 C113.991065,175.79826 115.057053,180.3755 113.813061,184.105102 C118.108546,180.3755 119.547834,176.984952 125.250735,173.933459 C119.999116,180.714554 121.272267,184.105102 122.73088,185.461321 C126.019034,184.105102 130.119562,180.036445 131.363554,176.306842 C133.602672,179.019281 131.258447,186.139431 130.687479,188.682342 C131.792798,186.478486 133.529436,184.783212 135.46137,183.426993 C133.446368,188.17376 135.012462,192.07289 135.012462,192.07289 Z M48.2141995,192.07289 C48.2141995,192.07289 52.8856964,185.461321 53.4834499,177.663061 C56.0124596,180.545027 56.1738497,184.105102 54.9759691,187.326123 C60.1814772,181.053609 63.2455153,172.238185 63.7184967,169.525747 C65.186943,173.255349 64.7648198,176.645897 64.0500923,179.527863 C69.6556851,176.306842 72.9340058,172.57724 76.0634815,168 C73.6826388,178.002116 67.5403223,184.613684 65.5792294,186.308958 C69.574651,184.952739 71.2699249,183.257465 73.0143618,180.3755 C72.8800961,183.087938 71.6361041,186.817541 70.0991687,190.038561 C74.7289618,185.122267 77.0830192,180.3755 79.3906261,176.137315 C79.7462945,180.205972 79.3733343,183.766047 78.1757928,186.987068 C82.7028523,180.714554 85.0986134,174.272514 85.2277932,170.373383 C88.9007737,181.223137 82.7977876,192.07289 82.7977876,192.07289 L48.2144369,192.07289 L-4,192.07289 C-4,192.07289 3.24187115,185.969904 2.7810957,179.866917 C2.7810957,179.866917 5.93260992,181.053609 5.18635034,188.004232 C8.46941782,185.461321 10.3915194,181.731719 11.1015001,177.663061 C13.5772782,179.019281 12.6869203,186.308958 12.6869203,186.308958 C12.6869203,186.308958 15.1382864,181.731719 18.9557042,179.527863 C17.1726151,181.731719 16.3188751,186.139431 17.9263339,188.343287 C22.2170722,183.426993 24.3246367,177.663061 23.5343,173.933459 C27.1930402,175.79826 28.2590285,180.3755 27.0150364,184.105102 C31.3105215,180.3755 32.7498091,176.984952 38.4527106,173.933459 C33.201091,180.714554 34.4742417,184.105102 35.9328554,185.461321 C39.2210087,184.105102 43.3215373,180.036445 44.5655293,176.306842 C46.8046471,179.019281 44.4604223,186.139431 43.889454,188.682342 C44.9947726,186.478486 46.7314112,184.783212 48.6633454,183.426993 C46.6483428,188.17376 48.2144369,192.07289 48.2144369,192.07289 L48.2141995,192.07289 Z M481.810487,192.07289 L516.394007,192.07289 C516.394007,192.07289 522.496993,181.223137 518.823674,170.373383 C518.694494,174.272514 516.299072,180.714554 511.771673,186.987068 C512.969215,183.766047 513.342514,180.205972 512.986506,176.137315 C510.679239,180.3755 508.325181,185.122267 503.695388,190.038561 C505.231984,186.817541 506.476315,183.087938 506.610581,180.3755 C504.866144,183.257465 503.17087,184.952739 499.175449,186.308958 C501.136542,184.613684 507.278519,178.002116 509.659701,168 C506.529886,172.57724 503.251565,176.306842 497.645973,179.527863 C498.3607,176.645897 498.783162,173.255349 497.314716,169.525747 C496.841396,172.238185 493.777358,181.053609 488.571849,187.326123 C489.770069,184.105102 489.608679,180.545027 487.07933,177.663061 C486.481577,185.461321 481.810419,192.07289 481.810419,192.07289 L429.59605,192.07289 C429.59605,192.07289 436.837921,185.969904 436.377146,179.866917 C436.377146,179.866917 439.52866,181.053609 438.7824,188.004232 C442.065468,185.461321 443.987569,181.731719 444.69755,177.663061 C447.173328,179.019281 446.28297,186.308958 446.28297,186.308958 C446.28297,186.308958 448.734336,181.731719 452.551754,179.527863 C450.768665,181.731719 449.914925,186.139431 451.522384,188.343287 C455.813122,183.426993 457.920687,177.663061 457.13035,173.933459 C460.78909,175.79826 461.855078,180.3755 460.611086,184.105102 C464.906571,180.3755 466.34552,176.984952 472.04876,173.933459 C466.797141,180.714554 468.070292,184.105102 469.528905,185.461321 C472.817059,184.105102 476.917248,180.036445 478.161579,176.306842 C480.400697,179.019281 478.056472,186.139431 477.485843,188.682342 C478.590822,186.478486 480.327461,184.783212 482.259395,183.426993 C480.244732,188.17376 481.810487,192.07289 481.810487,192.07289 Z M395.012462,192.07289 L429.595982,192.07289 C429.595982,192.07289 435.698968,181.223137 432.025649,170.373383 C431.896469,174.272514 429.501047,180.714554 424.973648,186.987068 C426.17119,183.766047 426.544489,180.205972 426.188481,176.137315 C423.881214,180.3755 421.527156,185.122267 416.897363,190.038561 C418.433959,186.817541 419.678291,183.087938 419.812556,180.3755 C418.068119,183.257465 416.372845,184.952739 412.377424,186.308958 C414.338517,184.613684 420.480833,178.002116 422.861676,168 C419.731861,172.57724 416.45354,176.306842 410.848287,179.527863 C411.562675,176.645897 411.985137,173.255349 410.516691,169.525747 C410.043371,172.238185 406.979333,181.053609 401.773825,187.326123 C402.971705,184.105102 402.810654,180.545027 400.281305,177.663061 C399.683552,185.461321 395.012394,192.07289 395.012394,192.07289 L342.798025,192.07289 C342.798025,192.07289 350.039896,185.969904 349.579121,179.866917 C349.579121,179.866917 352.730635,181.053609 351.984375,188.004232 C355.267443,185.461321 357.189544,181.731719 357.899525,177.663061 C360.375303,179.019281 359.484945,186.308958 359.484945,186.308958 C359.484945,186.308958 361.936311,181.731719 365.753729,179.527863 C363.97064,181.731719 363.1169,186.139431 364.724359,188.343287 C369.015097,183.426993 371.122662,177.663061 370.332325,173.933459 C373.991065,175.79826 375.057053,180.3755 373.813061,184.105102 C378.108546,180.3755 379.547834,176.984952 385.250735,173.933459 C379.999116,180.714554 381.272267,184.105102 382.73088,185.461321 C386.019034,184.105102 390.119562,180.036445 391.363554,176.306842 C393.602672,179.019281 391.258447,186.139431 390.687479,188.682342 C391.792798,186.478486 393.529436,184.783212 395.46137,183.426993 C393.446368,188.17376 395.012462,192.07289 395.012462,192.07289 Z" id="Small-Grass" fill="#000000"></path>
        <path d="M169.223472,104.361293 C169.739452,102.503739 173.912073,99.9855836 173.912073,99.9855836 C173.912073,99.9855836 178.322397,104.656423 188.383616,106.334683 C187.52046,107.161962 186.548979,108.046202 185.495585,108.900624 C181.589374,108.061112 168.736201,106.11563 169.223472,104.361293 M279.853244,165.006124 C274.898615,162.995652 270.253268,160.985563 268.085618,158.975091 C265.917968,156.965002 264.215005,154.644874 259.259994,154.181155 C259.259994,154.181155 256.162968,152.016237 254.460006,151.243243 C254.460006,151.243243 258.330618,148.614224 256.162968,142.737637 C253.995318,136.861433 249.350354,137.788872 246.408351,138.562248 C243.466349,139.335242 234.021397,139.799344 232.163411,140.881994 C232.163411,140.881994 233.402068,138.098146 231.853747,136.242885 C230.305425,134.386859 228.911744,132.84049 228.601697,128.819929 C228.292416,124.798986 224.111756,121.396972 225.19539,119.077227 C226.279406,116.757864 227.827728,110.107901 228.911744,106.551442 C229.995378,102.994601 234.486084,99.5922056 239.595354,101.757123 C244.705389,103.922423 246.718398,102.994601 246.718398,102.994601 C246.718398,102.994601 256.082968,112.319076 260.034346,111.036105 C263.401228,109.942369 264.678928,111.036105 267.001984,106.396614 C267.001984,106.396614 267.156625,102.376053 262.356637,97.8913902 C257.556649,93.4067272 255.54364,91.7059118 254.460006,89.5402298 C253.375989,87.3756947 250.589011,85.5196689 250.589011,85.5196689 C250.589011,85.5196689 251.208339,83.3551338 249.350354,80.7261143 C247.492368,78.0970949 245.169694,75.3136296 241.144058,73.76726 C241.144058,73.76726 242.537739,74.5402537 242.073051,76.7051711 C242.073051,76.7051711 236.963399,75.4680754 230.924754,75.4680754 C224.885726,75.4680754 221.169754,71.9112343 221.169754,71.9112343 C221.169754,71.9112343 222.973981,75.9321775 227,77.014445 C227,77.014445 223.801709,78.0970949 221.169754,77.1688908 C221.169754,77.1688908 221.634059,78.5608146 223.182763,79.0252989 C223.182763,79.0252989 215.440773,78.0970949 211.415137,80.1075665 C211.415137,80.1075665 216.369766,79.3341906 217.918088,80.2620123 C217.918088,80.2620123 214.047092,81.3442799 212.498771,81.499108 C210.950449,81.6539361 205.066828,82.5813755 203.208842,84.2829555 C203.208842,84.2829555 208.782799,82.8910317 210.795809,83.5095796 C210.795809,83.5095796 203.828171,86.6023188 199.647511,86.4478729 C199.647511,86.4478729 203.053818,87.6849686 205.376492,87.5305228 C205.376492,87.5305228 201.505114,88.7676185 197.324837,92.1692493 C197.324837,92.1692493 201.350473,90.313988 203.053818,91.2418098 C203.053818,91.2418098 199.028183,96.0357467 194.073171,97.5821162 C194.073171,97.5821162 194.847523,97.8913902 197.169814,97.8913902 C197.169814,97.8913902 195.31757,99.6182014 193.211929,101.62982 C190.027248,101.375596 185.784579,100.414133 181.928512,97.5025996 C181.928512,97.5025996 190.311266,92.3370753 190.120645,89.2688028 C190.120262,89.2688028 190.550883,87.525553 191.56868,87.6494155 C193.193939,87.8470603 193.867621,89.8261839 195.52733,88.5699737 C196.879671,87.5461967 196.959671,86.3156 197.9212,85.5024658 C198.49804,85.015044 198.747992,85.5731897 199.61153,85.1805762 C199.61153,85.1805762 199.975931,82.3860245 201.129995,80.3526154 C202.28406,78.318824 203.932668,77.7687064 203.719463,75.9214733 C203.507023,74.0746225 203.538793,67.8642952 194.991063,64.725681 C186.442951,61.5870669 180.213301,69.222195 180.942486,76.2682118 C180.942486,76.2682118 171.979446,76.5507253 164.459848,81.437559 C156.940632,86.3251573 146.386017,91.9444618 147.160369,95.8797717 C147.160369,95.8797717 140.180482,103.407476 144.806308,110.78341 C146.100468,112.846638 148.398644,114.214095 151.037106,115.11401 C144.822768,114.771094 136.95561,115.115157 132.447679,119.077227 C132.447679,119.077227 126.254393,120.159877 119.286755,113.974398 C112.318734,107.788538 105.970424,108.252258 105.970424,108.252258 C105.970424,108.252258 112.081974,108.773703 115.488281,115.11401 C115.488281,115.11401 108.293098,109.025633 101.32546,109.180079 C94.3578217,109.334907 89.0931459,113.664742 89.0931459,113.664742 C89.0931459,113.664742 97.2006836,110.78341 99.467474,112.118373 C99.467474,112.118373 93.9720705,112.198871 87.5448244,116.291992 C81.1175783,120.385114 72.0443846,116.482996 71.1930948,113.787458 C71.4235249,114.754656 72.3613216,118.020191 74.8482053,119.850603 C74.8482053,119.850603 65.7125344,122.479622 64.0091893,116.757864 C64.0091893,116.757864 62.9255557,126.654629 84.2931578,126.809457 C84.2931578,126.809457 76.5515504,128.819929 71.7515624,128.355827 C71.7515624,128.355827 80.8868506,130.830018 85.06751,130.21147 C85.06751,130.21147 81.5061792,131.603394 80.1124984,131.912668 C80.1124984,131.912668 87.8553057,134.232796 98.2284341,130.521126 C108.601562,126.809457 119.906083,123.09817 127.49305,125.108642 C127.49305,125.108642 123.777078,135.159853 122.538038,143.665841 C121.299381,152.171065 116.189729,154.490428 111.854429,152.016237 C111.854429,152.016237 108.138457,156.346072 104.576744,161.913385 C101.015796,167.480315 92.964141,170.728265 87.3898008,171.037156 C81.8158435,171.34643 86.1511436,175.676647 84.9124864,177.223017 C83.6738293,178.769387 79.1835055,175.366991 77.3255197,183.872597 C75.4675339,192.377821 78.7573596,192.926446 80.9250097,191.225631 C83.0926598,189.524433 86.6158315,186.810891 87.5448244,183.563324 C87.5448244,183.563324 91.8801246,182.944776 93.1187818,181.243578 C94.3578217,179.54238 97.9187698,172.42908 104.886408,170.264163 C111.854429,168.099245 115.5704,162.531933 122.847703,163.6142 C130.125005,164.69685 141.253398,163.15048 145.44401,156.346072 C145.44401,156.346072 147.485727,158.975091 147.398838,161.294837 C147.398838,161.294837 144.138367,167.789589 149.364,168.872239 C154.589633,169.954507 181.376552,174.903272 182.460568,177.687119 C183.544202,180.470584 187.330987,180.470584 186.908787,181.862508 C186.485821,183.25405 183.305734,183.872597 186.908787,187.119782 C190.51184,190.367732 199.400946,194.320502 198.950421,190.299941 C198.500661,186.27938 195.229914,184.181871 193.567526,182.635502 C191.905138,181.089132 194.699772,177.223017 189.896339,173.820622 C185.092524,170.418609 163.062722,167.944417 163.161478,162.995652 C163.260234,158.04727 166.047595,156.346072 163.879945,151.088415 C163.879945,151.088415 176.2669,150.779141 187.105533,154.490428 C197.944166,158.202098 208.00883,157.58355 212.963459,154.490428 C212.963459,154.490428 214.357139,158.820263 218.84708,157.273894 C223.337787,155.727524 229.221409,153.098505 235.879382,156.036798 C242.537739,158.975091 245.634382,158.04727 245.634382,158.04727 C245.634382,158.04727 242.847021,161.758939 240.67937,162.686378 C240.67937,162.686378 238.976025,165.470226 237.892392,165.470226 C236.808375,165.470226 235.570101,163.6142 231.079394,168.099245 C226.589453,172.583526 226.589453,176.913361 228.447056,176.758915 C230.305425,176.604469 232.782357,176.604469 234.176037,175.676647 C235.570101,174.748443 236.808375,173.97545 238.976025,174.284724 C241.144058,174.593998 242.537739,172.893182 244.086061,169.645615 C245.634382,166.397665 249.969682,158.820263 249.969682,158.820263 C249.969682,158.820263 256.162968,158.356544 257.866696,160.367015 C259.569658,162.377487 263.751466,164.387576 267.002367,164.387576 C270.253268,164.387576 275.827608,167.171041 277.37593,171.810532 C277.37593,171.810532 279.233915,172.583526 279.388939,174.439552 C279.54358,176.295195 278.924251,181.862508 285.737248,184.027426 C285.737248,184.027426 289.143556,180.160928 287.130929,174.129896 C285.11792,168.099245 284.807873,167.016596 279.853244,165.006124 Z" id="Runner-Copy-2" fill="#000000"></path>
        <path d="M169.223472,100.361293 C169.739452,98.5037385 173.912073,95.9855836 173.912073,95.9855836 C173.912073,95.9855836 178.322397,100.656423 188.383616,102.334683 C187.52046,103.161962 186.548979,104.046202 185.495585,104.900624 C181.589374,104.061112 168.736201,102.11563 169.223472,100.361293 M279.853244,161.006124 C274.898615,158.995652 270.253268,156.985563 268.085618,154.975091 C265.917968,152.965002 264.215005,150.644874 259.259994,150.181155 C259.259994,150.181155 256.162968,148.016237 254.460006,147.243243 C254.460006,147.243243 258.330618,144.614224 256.162968,138.737637 C253.995318,132.861433 249.350354,133.788872 246.408351,134.562248 C243.466349,135.335242 234.021397,135.799344 232.163411,136.881994 C232.163411,136.881994 233.402068,134.098146 231.853747,132.242885 C230.305425,130.386859 228.911744,128.84049 228.601697,124.819929 C228.292416,120.798986 224.111756,117.396972 225.19539,115.077227 C226.279406,112.757864 227.827728,106.107901 228.911744,102.551442 C229.995378,98.9946009 234.486084,95.5922056 239.595354,97.757123 C244.705389,99.9224227 246.718398,98.9946009 246.718398,98.9946009 C246.718398,98.9946009 256.082968,108.319076 260.034346,107.036105 C263.401228,105.942369 264.678928,107.036105 267.001984,102.396614 C267.001984,102.396614 267.156625,98.3760531 262.356637,93.8913902 C257.556649,89.4067272 255.54364,87.7059118 254.460006,85.5402298 C253.375989,83.3756947 250.589011,81.5196689 250.589011,81.5196689 C250.589011,81.5196689 251.208339,79.3551338 249.350354,76.7261143 C247.492368,74.0970949 245.169694,71.3136296 241.144058,69.76726 C241.144058,69.76726 242.537739,70.5402537 242.073051,72.7051711 C242.073051,72.7051711 236.963399,71.4680754 230.924754,71.4680754 C224.885726,71.4680754 221.169754,67.9112343 221.169754,67.9112343 C221.169754,67.9112343 222.973981,71.9321775 227,73.014445 C227,73.014445 223.801709,74.0970949 221.169754,73.1688908 C221.169754,73.1688908 221.634059,74.5608146 223.182763,75.0252989 C223.182763,75.0252989 215.440773,74.0970949 211.415137,76.1075665 C211.415137,76.1075665 216.369766,75.3341906 217.918088,76.2620123 C217.918088,76.2620123 214.047092,77.3442799 212.498771,77.499108 C210.950449,77.6539361 205.066828,78.5813755 203.208842,80.2829555 C203.208842,80.2829555 208.782799,78.8910317 210.795809,79.5095796 C210.795809,79.5095796 203.828171,82.6023188 199.647511,82.4478729 C199.647511,82.4478729 203.053818,83.6849686 205.376492,83.5305228 C205.376492,83.5305228 201.505114,84.7676185 197.324837,88.1692493 C197.324837,88.1692493 201.350473,86.313988 203.053818,87.2418098 C203.053818,87.2418098 199.028183,92.0357467 194.073171,93.5821162 C194.073171,93.5821162 194.847523,93.8913902 197.169814,93.8913902 C197.169814,93.8913902 195.31757,95.6182014 193.211929,97.6298199 C190.027248,97.3755959 185.784579,96.4141325 181.928512,93.5025996 C181.928512,93.5025996 190.311266,88.3370753 190.120645,85.2688028 C190.120262,85.2688028 190.550883,83.525553 191.56868,83.6494155 C193.193939,83.8470603 193.867621,85.8261839 195.52733,84.5699737 C196.879671,83.5461967 196.959671,82.3156 197.9212,81.5024658 C198.49804,81.015044 198.747992,81.5731897 199.61153,81.1805762 C199.61153,81.1805762 199.975931,78.3860245 201.129995,76.3526154 C202.28406,74.318824 203.932668,73.7687064 203.719463,71.9214733 C203.507023,70.0746225 203.538793,63.8642952 194.991063,60.725681 C186.442951,57.5870669 180.213301,65.222195 180.942486,72.2682118 C180.942486,72.2682118 171.979446,72.5507253 164.459848,77.437559 C156.940632,82.3251573 146.386017,87.9444618 147.160369,91.8797717 C147.160369,91.8797717 140.180482,99.4074759 144.806308,106.78341 C146.100468,108.846638 148.398644,110.214095 151.037106,111.11401 C144.822768,110.771094 136.95561,111.115157 132.447679,115.077227 C132.447679,115.077227 126.254393,116.159877 119.286755,109.974398 C112.318734,103.788538 105.970424,104.252258 105.970424,104.252258 C105.970424,104.252258 112.081974,104.773703 115.488281,111.11401 C115.488281,111.11401 108.293098,105.025633 101.32546,105.180079 C94.3578217,105.334907 89.0931459,109.664742 89.0931459,109.664742 C89.0931459,109.664742 97.2006836,106.78341 99.467474,108.118373 C99.467474,108.118373 93.9720705,108.198871 87.5448244,112.291992 C81.1175783,116.385114 72.0443846,112.482996 71.1930948,109.787458 C71.4235249,110.754656 72.3613216,114.020191 74.8482053,115.850603 C74.8482053,115.850603 65.7125344,118.479622 64.0091893,112.757864 C64.0091893,112.757864 62.9255557,122.654629 84.2931578,122.809457 C84.2931578,122.809457 76.5515504,124.819929 71.7515624,124.355827 C71.7515624,124.355827 80.8868506,126.830018 85.06751,126.21147 C85.06751,126.21147 81.5061792,127.603394 80.1124984,127.912668 C80.1124984,127.912668 87.8553057,130.232796 98.2284341,126.521126 C108.601562,122.809457 119.906083,119.09817 127.49305,121.108642 C127.49305,121.108642 123.777078,131.159853 122.538038,139.665841 C121.299381,148.171065 116.189729,150.490428 111.854429,148.016237 C111.854429,148.016237 108.138457,152.346072 104.576744,157.913385 C101.015796,163.480315 92.964141,166.728265 87.3898008,167.037156 C81.8158435,167.34643 86.1511436,171.676647 84.9124864,173.223017 C83.6738293,174.769387 79.1835055,171.366991 77.3255197,179.872597 C75.4675339,188.377821 78.7573596,188.926446 80.9250097,187.225631 C83.0926598,185.524433 86.6158315,182.810891 87.5448244,179.563324 C87.5448244,179.563324 91.8801246,178.944776 93.1187818,177.243578 C94.3578217,175.54238 97.9187698,168.42908 104.886408,166.264163 C111.854429,164.099245 115.5704,158.531933 122.847703,159.6142 C130.125005,160.69685 141.253398,159.15048 145.44401,152.346072 C145.44401,152.346072 147.485727,154.975091 147.398838,157.294837 C147.398838,157.294837 144.138367,163.789589 149.364,164.872239 C154.589633,165.954507 181.376552,170.903272 182.460568,173.687119 C183.544202,176.470584 187.330987,176.470584 186.908787,177.862508 C186.485821,179.25405 183.305734,179.872597 186.908787,183.119782 C190.51184,186.367732 199.400946,190.320502 198.950421,186.299941 C198.500661,182.27938 195.229914,180.181871 193.567526,178.635502 C191.905138,177.089132 194.699772,173.223017 189.896339,169.820622 C185.092524,166.418609 163.062722,163.944417 163.161478,158.995652 C163.260234,154.04727 166.047595,152.346072 163.879945,147.088415 C163.879945,147.088415 176.2669,146.779141 187.105533,150.490428 C197.944166,154.202098 208.00883,153.58355 212.963459,150.490428 C212.963459,150.490428 214.357139,154.820263 218.84708,153.273894 C223.337787,151.727524 229.221409,149.098505 235.879382,152.036798 C242.537739,154.975091 245.634382,154.04727 245.634382,154.04727 C245.634382,154.04727 242.847021,157.758939 240.67937,158.686378 C240.67937,158.686378 238.976025,161.470226 237.892392,161.470226 C236.808375,161.470226 235.570101,159.6142 231.079394,164.099245 C226.589453,168.583526 226.589453,172.913361 228.447056,172.758915 C230.305425,172.604469 232.782357,172.604469 234.176037,171.676647 C235.570101,170.748443 236.808375,169.97545 238.976025,170.284724 C241.144058,170.593998 242.537739,168.893182 244.086061,165.645615 C245.634382,162.397665 249.969682,154.820263 249.969682,154.820263 C249.969682,154.820263 256.162968,154.356544 257.866696,156.367015 C259.569658,158.377487 263.751466,160.387576 267.002367,160.387576 C270.253268,160.387576 275.827608,163.171041 277.37593,167.810532 C277.37593,167.810532 279.233915,168.583526 279.388939,170.439552 C279.54358,172.295195 278.924251,177.862508 285.737248,180.027426 C285.737248,180.027426 289.143556,176.160928 287.130929,170.129896 C285.11792,164.099245 284.807873,163.016596 279.853244,161.006124 Z" id="Runner" fill="#FFFFFF"></path>
    </g>
</svg>