<?xml version="1.0" encoding="UTF-8"?>
<svg width="512px" height="192px" viewBox="0 0 512 192" version="1.1" xmlns="http://www.w3.org/2000/svg" xmlns:xlink="http://www.w3.org/1999/xlink">
    <!-- Generator: Sketch 52.5 (67469) - http://www.bohemiancoding.com/sketch -->
    <title>Racing Post Abstract</title>
    <desc>Created with Sketch.</desc>
    <defs>
        <linearGradient x1="0%" y1="50%" x2="100%" y2="50%" id="linearGradient-1">
            <stop stop-color="#EF9B59" offset="0%"></stop>
            <stop stop-color="#FEE785" offset="100%"></stop>
        </linearGradient>
        <linearGradient x1="-1.11022302e-14%" y1="50%" x2="100%" y2="50%" id="linearGradient-2">
            <stop stop-color="#EF9B59" offset="0%"></stop>
            <stop stop-color="#C83B3B" offset="100%"></stop>
        </linearGradient>
        <linearGradient x1="100%" y1="50%" x2="0%" y2="50%" id="linearGradient-3">
            <stop stop-color="#C83B3B" offset="0%"></stop>
            <stop stop-color="#A42127" offset="100%"></stop>
        </linearGradient>
    </defs>
    <g id="Racing-Post-Abstract" stroke="none" stroke-width="1" fill="none" fill-rule="evenodd">
        <rect id="Rectangle" fill="url(#linearGradient-1)" x="0" y="0" width="512" height="192"></rect>
        <path d="M-2.38742359e-12,192 C64,128 132.064982,96 192,96 C251.935018,96 352,160 416,160 C480,160 512,128 512,64 C512,-4.12114787e-13 512,32 512,-4.12114787e-13 C490.666667,-7.10542736e-14 320,-7.10542736e-14 -2.38742359e-12,-4.12114787e-13 C-2.36847579e-12,85.3333333 -2.36847579e-12,149.333333 -2.38742359e-12,192 Z" id="Path-3-Copy" fill="url(#linearGradient-2)" fill-rule="nonzero" transform="translate(256.000000, 96.000000) scale(-1, 1) translate(-256.000000, -96.000000) "></path>
        <path d="M2.52940361e-26,32 C64,96 192,-32 256,32 C320,96 448,64 512,4.26325641e-14 C469.333333,4.26325641e-14 298.666667,4.26325641e-14 -2.27373675e-13,4.26325641e-14 C-7.57912251e-14,21.3333333 2.52940361e-26,32 2.52940361e-26,32 Z" id="Path-3" fill="url(#linearGradient-3)" fill-rule="nonzero"></path>
    </g>
</svg>