<?xml version="1.0" encoding="UTF-8"?>
<svg width="48px" height="48px" viewBox="0 0 48 48" version="1.1" xmlns="http://www.w3.org/2000/svg" xmlns:xlink="http://www.w3.org/1999/xlink">
    <!-- Generator: Sketch 51.2 (57519) - http://www.bohemiancoding.com/sketch -->
    <title>Instagram</title>
    <desc>Created with Sketch.</desc>
    <defs></defs>
    <g id="Instagram" stroke="none" stroke-width="1" fill="none" fill-rule="evenodd">
        <path d="M35.2105,10.27125 C33.8175,10.27125 32.68875,11.4 32.68875,12.79125 C32.68875,14.1825 33.8175,15.31125 35.2105,15.31125 C36.60175,15.31125 37.72875,14.1825 37.72875,12.79125 C37.72875,11.4 36.60175,10.27125 35.2105,10.27125 M24,31 C20.13425,31 17,27.8675 17,24 C17,20.13425 20.13425,17 24,17 C27.86575,17 31,20.13425 31,24 C31,27.8675 27.86575,31 24,31 M24,13.2165 C18.04475,13.2165 13.2165,18.04475 13.2165,24 C13.2165,29.95525 18.04475,34.78525 24,34.78525 C29.95525,34.78525 34.7835,29.957 34.7835,24 C34.7835,18.04475 29.95525,13.2165 24,13.2165 M24,3 C18.29675,3 17.58275,3.0245 15.34275,3.126 C7.71625,3.476 3.47775,7.7075 3.12775,15.341 C3.0245,17.58275 3,18.29675 3,24 C3,29.70325 3.0245,30.419 3.126,32.659 C3.476,40.2855 7.7075,44.524 15.341,44.874 C17.58275,44.9755 18.29675,45 24,45 C29.70325,45 30.419,44.9755 32.659,44.874 C40.2785,44.524 44.5275,40.2925 44.87225,32.659 C44.9755,30.419 45,29.70325 45,24 C45,18.29675 44.9755,17.58275 44.874,15.34275 C44.531,7.72325 40.29425,3.47775 32.66075,3.12775 C30.419,3.0245 29.70325,3 24,3 M24,6.78525 C29.607,6.78525 30.272,6.80625 32.4875,6.90775 C38.1785,7.16675 40.83675,9.867 41.09575,15.516 C41.19725,17.72975 41.2165,18.39475 41.2165,24.00175 C41.2165,29.6105 41.1955,30.27375 41.09575,32.4875 C40.835,38.13125 38.18375,40.83675 32.4875,41.09575 C30.272,41.19725 29.6105,41.21825 24,41.21825 C18.393,41.21825 17.728,41.19725 15.51425,41.09575 C9.80925,40.835 7.165,38.1225 6.906,32.48575 C6.8045,30.272 6.7835,29.60875 6.7835,24 C6.7835,18.393 6.80625,17.72975 6.906,15.51425 C7.16675,9.867 9.818,7.165 15.51425,6.906 C17.72975,6.80625 18.393,6.78525 24,6.78525" id="Instagram-Icon" fill="#000000"></path>
    </g>
</svg>