<?xml version="1.0" encoding="UTF-8"?>
<svg width="72px" height="72px" viewBox="0 0 72 72" version="1.1" xmlns="http://www.w3.org/2000/svg" xmlns:xlink="http://www.w3.org/1999/xlink">
    <!-- Generator: Sketch 52.5 (67469) - http://www.bohemiancoding.com/sketch -->
    <title>EPAM</title>
    <desc>Created with Sketch.</desc>
    <defs>
        <polygon id="path-1" points="0.0445657371 24.8207171 9.55229482 24.8207171 9.55229482 0.258051793 0.0445657371 0.258051793 0.0445657371 24.8207171"></polygon>
    </defs>
    <g id="EPAM" stroke="none" stroke-width="1" fill="none" fill-rule="evenodd">
        <g id="EPAM-Logo" transform="translate(1.000000, 26.000000)">
            <path d="M13.1774303,8.63130677 L17.0374701,8.63130677 L17.0374701,4.53226295 C17.0374701,3.38855777 16.465757,2.81656574 15.3220518,2.81656574 L14.8931275,2.81656574 C13.7494223,2.81656574 13.1774303,3.38855777 13.1774303,4.53226295 L13.1774303,8.63130677 Z M13.1687849,11.2469641 L13.1774303,15.7554104 C13.1774303,16.8991155 13.7494223,17.4711076 14.8931275,17.4711076 L15.3934462,17.4711076 C16.5371514,17.4711076 17.1091434,16.8991155 17.1091434,15.7554104 L17.1091434,13.5393944 L19.7540837,13.5393944 L19.7540837,15.6483187 C19.7540837,18.5434183 18.2885458,20.0089562 15.3934462,20.0089562 L14.8214542,20.0089562 C11.9263546,20.0089562 10.4608167,18.5434183 10.4608167,15.9871633 L10.4608167,4.97847809 C10.4608167,1.74453386 11.9263546,0.278996016 14.8214542,0.278996016 L15.3934462,0.278996016 C18.2885458,0.278996016 19.7540837,1.74453386 19.7540837,4.63963347 L19.7451594,11.2469641 L13.1687849,11.2469641 Z" id="Fill-1" fill="#464547"></path>
            <g id="Group-5" transform="translate(21.474104, 0.020805)">
                <mask id="mask-2" fill="white">
                    <use xlink:href="#path-1"></use>
                </mask>
                <g id="Clip-4"></g>
                <path d="M2.76117928,16.4138287 C3.51165737,17.0572151 4.36978486,17.4144661 5.26305179,17.4144661 C6.26396813,17.4144661 6.83596016,16.9498446 6.83596016,15.8418367 L6.83596016,4.40422709 C6.83596016,3.29621912 6.26396813,2.83159761 5.26305179,2.83159761 C4.36978486,2.83159761 3.51165737,3.18912749 2.76117928,3.83251394 L2.76117928,16.4138287 Z M0.0445657371,0.472513944 L2.76117928,0.472513944 L2.76117928,1.72358964 C3.40456574,1.04450598 4.51257371,0.258051793 6.08520319,0.258051793 C8.40858964,0.258051793 9.55229482,1.79498406 9.55229482,4.08267331 L9.55229482,16.1636693 C9.55229482,18.4510797 8.40858964,19.988012 6.08520319,19.988012 C4.51257371,19.988012 3.40456574,19.2375339 2.76117928,18.5941474 L2.76117928,24.8208008 L0.0445657371,24.8208008 L0.0445657371,0.472513944 Z" id="Fill-3" fill="#464547" mask="url(#mask-2)"></path>
            </g>
            <path d="M39.1712749,16.5417809 L39.1712749,10.1754064 L36.7050996,11.1091116 C35.7041833,11.5020598 35.3826295,12.0023785 35.3826295,13.1103865 L35.3826295,16.0414622 C35.3826295,16.9707052 35.847251,17.4353267 36.7050996,17.4353267 C37.5269721,17.4353267 38.2777291,17.1494701 39.1712749,16.5417809 L39.1712749,16.5417809 Z M32.6660159,13.0746892 C32.6660159,10.6801873 33.4524701,9.71496813 35.5254183,9.00018725 L39.1712749,7.74911155 L39.1712749,4.53217928 C39.1712749,3.3884741 38.5992829,2.78078486 37.4555777,2.78078486 L37.012988,2.78078486 C35.8692829,2.78078486 35.2972908,3.3884741 35.2972908,4.53217928 L35.2972908,7.26608367 L32.6523506,7.26608367 L32.6523506,4.6395498 C32.6523506,1.7444502 34.1178884,0.278912351 37.012988,0.278912351 L37.5269721,0.278912351 C40.4220717,0.278912351 41.8878884,1.7444502 41.8878884,4.6395498 L41.8878884,19.7944104 L39.1712749,19.7944104 L39.1712749,18.5790319 C38.4207968,19.2940916 37.4198805,20.0088725 35.847251,20.0088725 C33.6669323,20.0088725 32.6660159,18.7577968 32.6660159,16.6134542 L32.6660159,13.0746892 Z" id="Fill-6" fill="#464547"></path>
            <path d="M52.8742351,19.7943825 L50.1576215,19.7943825 L50.1576215,4.24657371 C50.1576215,3.28135458 49.6932789,2.85243028 48.8711275,2.85243028 C48.1203705,2.85243028 47.3341952,3.13828685 46.3689761,3.81737052 L46.3689761,19.7943825 L43.6526414,19.7943825 L43.6526414,0.493346614 L46.3689761,0.493346614 L46.3689761,1.74442231 C47.1554303,0.993944223 48.1920438,0.278884462 49.6932789,0.278884462 C51.0871434,0.278884462 52.0163865,0.850876494 52.5167052,1.85151394 C53.4819243,1.02936255 54.6256295,0.278884462 56.198259,0.278884462 C58.3071833,0.278884462 59.379494,1.56565737 59.379494,3.67458167 L59.379494,19.7943825 L56.6628805,19.7943825 L56.6628805,4.24657371 C56.6628805,3.28135458 56.198259,2.85243028 55.3761076,2.85243028 C54.6256295,2.85243028 53.8391753,3.13828685 52.8742351,3.81737052 L52.8742351,19.7943825 Z" id="Fill-8" fill="#464547"></path>
            <polygon id="Fill-10" fill="#39C2D7" points="6.97936255 2.27106773 6.97936255 5.82015139 2.40788845 10.1766056 6.97936255 14.4546932 6.97936255 18.0815857 0 11.5208287 0 8.90963347"></polygon>
            <polygon id="Fill-12" fill="#39C2D7" points="69.8053108 8.90966135 69.8053108 11.5208566 62.8259482 18.0816135 62.8259482 14.4547211 67.3974223 10.1763546 62.8259482 5.82017928 62.8259482 2.27109562"></polygon>
        </g>
    </g>
</svg>